Coordinates
version=1
nRows=22
nColumns=24
inDegrees=yes

Units are S.I. units (second, meters, Newtons, ...)
Angles are in degrees.

endheader
time	pelvis_tilt	pelvis_list	pelvis_rotation	pelvis_tx	pelvis_ty	pelvis_tz	hip_flexion_r	hip_adduction_r	hip_rotation_r	knee_angle_r	ankle_angle_r	subtalar_angle_r	mtp_angle_r	hip_flexion_l	hip_adduction_l	hip_rotation_l	knee_angle_l	ankle_angle_l	subtalar_angle_l	mtp_angle_l	lumbar_extension	lumbar_bending	lumbar_rotation
      3.09500000	    -12.55679878	      2.75328764	      1.98611538	     -1.46866903	     -0.01141072	      0.46012623	     38.65505249	     -3.75569652	      0.40351838	    -46.66620958	     -3.39055758	      2.81217928	     16.81741526	      6.62195659	      8.10476298	     15.60540714	     -7.82511812	      2.28376436	     -6.17380816	     -1.49069521	      9.28578291	     -3.61629414	      2.39007484
      3.10000000	    -12.64374555	      2.56755874	      2.08881354	     -1.46192450	     -0.01185682	      0.45994108	     39.07356866	     -3.63738663	      0.30621082	    -45.21077339	     -3.30321516	      3.10729603	     16.66364267	      6.05289090	      7.85596303	     15.66242321	     -7.36007942	      2.44051293	     -6.11890742	     -1.35268459	      9.32282103	     -3.43724791	      2.19024885
      3.10500000	    -12.63603840	      2.37203558	      2.22572699	     -1.45517830	     -0.01225901	      0.45976347	     39.32549525	     -3.51941324	      0.21326848	    -43.65962572	     -3.25196779	      3.39770817	     16.50560870	      5.40410622	      7.59812588	     15.69990136	     -6.93457922	      2.58235860	     -6.02770273	     -1.11757515	      9.24328325	     -3.26180603	      1.89772815
      3.11000000	    -12.77498512	      2.25561401	      2.31662415	     -1.44840977	     -0.01301526	      0.45962096	     39.74218677	     -3.45050681	      0.21294648	    -42.10642580	     -3.23720240	      3.72431537	     16.41948358	      4.93576287	      7.44229382	     15.69238752	     -6.56569721	      2.74241732	     -6.01722204	     -1.02820853	      9.33127725	     -3.15626361	      1.73521428
      3.11500000	    -12.67969968	      2.07720915	      2.51931058	     -1.44153555	     -0.01356153	      0.45938729	     39.81107194	     -3.40676056	      0.02831157	    -40.44701794	     -3.23191057	      3.98774784	     16.33824890	      4.20669218	      7.21173910	     15.75581714	     -6.18524417	      2.93645395	     -5.89523012	     -0.72826547	      9.16597101	     -3.01092467	      1.41347952
      3.12000000	    -12.64460530	      1.95216403	      2.66518463	     -1.43465121	     -0.01431241	      0.45924809	     39.93506420	     -3.36424276	     -0.03609659	    -38.76498726	     -3.31045158	      4.23163454	     16.26983696	      3.56351541	      7.04564759	     15.75902782	     -5.84979137	      3.09985627	     -5.87535881	     -0.48282735	      9.06545485	     -2.91160398	      1.16399593
      3.12500000	    -12.61840221	      1.85774051	      2.83684401	     -1.42775593	     -0.01519686	      0.45908041	     40.04114403	     -3.37135141	     -0.10407436	    -37.05875363	     -3.41507876	      4.46655997	     16.22068270	      2.95519688	      6.92600203	     15.78872877	     -5.57526555	      3.27590254	     -5.88387535	     -0.28489977	      8.97101056	     -2.84763008	      0.89394041
      3.13000000	    -12.74029951	      1.87986445	      2.95868523	     -1.42088030	     -0.01643717	      0.45907038	     40.33091982	     -3.44156795	     -0.02020132	    -35.40300247	     -3.51172240	      4.72239455	     16.11060513	      2.53533957	      6.94672886	     15.76055410	     -5.37259429	      3.46686313	     -5.94686998	     -0.23027350	      9.03349327	     -2.91741389	      0.68063799
      3.13500000	    -12.49912123	      1.71720877	      3.21502591	     -1.41387961	     -0.01719434	      0.45881335	     40.08009024	     -3.44688490	     -0.22530505	    -33.55377143	     -3.71659169	      4.86631878	     16.13453380	      1.73047990	      6.75565378	     15.91033918	     -5.19144484	      3.69216223	     -5.98571065	     -0.06935950	      8.70514294	     -2.78662873	      0.35382414
      3.14000000	    -12.49297787	      1.67301047	      3.44985752	     -1.40684615	     -0.01839651	      0.45864773	     40.11253987	     -3.54825403	     -0.32772837	    -31.78428311	     -3.86774009	      5.06705028	     16.09810777	      1.20688609	      6.71219612	     16.03577237	     -5.08330745	      3.92701919	     -6.05461513	     -0.00873737	      8.64020557	     -2.79339936	      0.05567354
      3.14500000	    -12.39871955	      1.63361467	      3.70075336	     -1.39984739	     -0.01956640	      0.45849591	     40.01236622	     -3.65637273	     -0.41699996	    -29.98215136	     -4.04921179	      5.23250577	     16.09324830	      0.61844292	      6.67425525	     16.19200245	     -5.04208724	      4.17876494	     -6.15271777	     -0.00467131	      8.46334063	     -2.80745570	     -0.27653857
      3.15000000	    -12.30220635	      1.61788200	      3.95603741	     -1.39283742	     -0.02080846	      0.45837954	     39.88987095	     -3.78865842	     -0.49742489	    -28.18278555	     -4.23808089	      5.39977794	     16.12302117	      0.04966757	      6.66246694	     16.36521424	     -5.05545161	      4.44389729	     -6.25825876	     -0.04731538	      8.27996353	     -2.84834344	     -0.60545183
      3.15500000	    -12.15811001	      1.60943083	      4.19463603	     -1.38582674	     -0.02205629	      0.45826935	     39.69038598	     -3.91600627	     -0.54751650	    -26.37218557	     -4.44290194	      5.55739823	     16.27964265	     -0.54672836	      6.66104732	     16.52449278	     -5.12738088	      4.73291170	     -6.38455802	     -0.18683109	      8.03748662	     -2.88419853	     -0.91264325
      3.16000000	    -12.14198803	      1.60541122	      4.49786339	     -1.37880311	     -0.02346532	      0.45814043	     39.62338862	     -4.10236599	     -0.67822033	    -24.62426298	     -4.58991066	      5.80500540	     16.31983611	     -0.97593916	      6.66580722	     16.76532229	     -5.25349862	      5.03145025	     -6.43174925	     -0.21102988	      7.93768896	     -2.95061660	     -1.28069346
      3.16500000	    -12.03993452	      1.58022875	      4.79192032	     -1.37179989	     -0.02477839	      0.45798383	     39.43767173	     -4.26540105	     -0.81977118	    -22.88090939	     -4.72077168	      6.08918900	     16.45031741	     -1.47527288	      6.64388264	     16.99823697	     -5.42524025	      5.34241566	     -6.48398533	     -0.29114640	      7.73523007	     -2.97497234	     -1.64639534
      3.17000000	    -11.95748665	      1.54164729	      5.07625977	     -1.36479999	     -0.02610608	      0.45784169	     39.26389303	     -4.41195701	     -0.95901631	    -21.17902211	     -4.82877464	      6.39977897	     16.62310949	     -1.92900446	      6.60613647	     17.22158244	     -5.64222866	      5.66201262	     -6.50609176	     -0.36492573	      7.55091538	     -2.97952365	     -2.00072828
      3.17500000	    -11.89029538	      1.48661580	      5.35568496	     -1.35782820	     -0.02743100	      0.45773004	     39.10387064	     -4.54174091	     -1.10844428	    -19.53609208	     -4.89858707	      6.75609751	     16.82495599	     -2.33854179	      6.54715872	     17.43009660	     -5.90359694	      5.98773759	     -6.48970824	     -0.41000370	      7.37983218	     -2.96685677	     -2.34746320
      3.18000000	    -11.83302218	      1.40617149	      5.63559429	     -1.35085763	     -0.02872703	      0.45758894	     38.94787192	     -4.65327191	     -1.27644067	    -17.95648159	     -4.93542939	      7.15005757	     17.05075011	     -2.71334674	      6.45913295	     17.63118893	     -6.20361870	      6.31560095	     -6.42453672	     -0.42093189	      7.21624011	     -2.91876477	     -2.69571413
      3.18500000	    -11.70375235	      1.30658735	      5.86793459	     -1.34385028	     -0.02992076	      0.45750103	     38.69940269	     -4.70906396	     -1.39563990	    -16.41017752	     -4.98038437	      7.51887379	     17.51740006	     -3.15709191	      6.33739269	     17.75187855	     -6.52244822	      6.67990428	     -6.27778652	     -0.51951261	      6.98086429	     -2.82770217	     -2.99766309
      3.19000000	    -11.75588696	      1.19098289	      6.17142098	     -1.33688558	     -0.03126904	      0.45736419	     38.66587042	     -4.80648297	     -1.58299831	    -15.01381395	     -4.96562819	      7.93415198	     17.64067967	     -3.35818879	      6.21302236	     17.97967811	     -6.90935129	      6.98069182	     -6.15424380	     -0.39546710	      6.93547370	     -2.75094828	     -3.35993783
      3.19500000	    -11.72961983	      1.05498702	      6.45796925	     -1.32986193	     -0.03250148	      0.45720973	     38.53822197	     -4.87290698	     -1.78634018	    -13.69647403	     -4.89617348	      8.41197656	     17.84760637	     -3.63409222	      6.05375776	     18.14500940	     -7.31142242	      7.29019053	     -5.94450810	     -0.25708614	      6.81208303	     -2.63232629	     -3.71133096
      3.20000000	    -11.71313024	      0.90026643	      6.73000117	     -1.32278116	     -0.03370988	      0.45710026	     38.41906337	     -4.90540699	     -1.96205135	    -12.47393382	     -4.83704594	      8.83892099	     18.05707994	     -3.88321456	      5.86832258	     18.29017946	     -7.74096691	      7.58787466	     -5.69791287	     -0.10428223	      6.70664594	     -2.49101201	     -4.04234830
